<?xml version="1.0" encoding="UTF-8"?>
<!DOCTYPE svg PUBLIC "-//W3C//DTD SVG 1.1//EN" "http://www.w3.org/Graphics/SVG/1.1/DTD/svg11.dtd">
<svg xmlns="http://www.w3.org/2000/svg" version="1.1" width="1563px" height="1563px" style="shape-rendering:geometricPrecision; text-rendering:geometricPrecision; image-rendering:optimizeQuality; fill-rule:evenodd; clip-rule:evenodd" xmlns:xlink="http://www.w3.org/1999/xlink">
<g><path style="opacity:1" fill="#fefefe" d="M -0.5,-0.5 C 520.5,-0.5 1041.5,-0.5 1562.5,-0.5C 1562.5,520.5 1562.5,1041.5 1562.5,1562.5C 1041.5,1562.5 520.5,1562.5 -0.5,1562.5C -0.5,1041.5 -0.5,520.5 -0.5,-0.5 Z"/></g>
<g><path style="opacity:1" fill="#221e1e" d="M 760.5,436.5 C 772.664,435.17 778.497,440.504 778,452.5C 771.571,466.833 769.238,481.833 771,497.5C 773.509,505.693 776.009,513.86 778.5,522C 775.623,539.271 765.957,544.938 749.5,539C 741.997,532.505 737.163,524.339 735,514.5C 731,498.826 732,483.493 738,468.5C 743.128,455.92 750.628,445.253 760.5,436.5 Z"/></g>
<g><path style="opacity:1" fill="#221e1e" d="M 810.5,436.5 C 818.855,434.453 825.022,437.12 829,444.5C 829.667,447.167 829.667,449.833 829,452.5C 819.063,474.237 819.063,495.903 829,517.5C 829.43,537.866 819.93,545.033 800.5,539C 791.794,531.09 786.627,521.256 785,509.5C 781.554,486.619 786.887,465.953 801,447.5C 804.032,443.641 807.198,439.974 810.5,436.5 Z"/></g>
<g><path style="opacity:1" fill="#231f1f" d="M 544.5,509.5 C 551.909,508.621 558.909,509.788 565.5,513C 573.492,521.707 573.492,530.374 565.5,539C 563.725,540.439 561.725,541.439 559.5,542C 553.971,542.084 548.638,543.084 543.5,545C 540.598,547.24 538.431,550.073 537,553.5C 536.667,582.833 536.333,612.167 536,641.5C 535.036,652.057 531.87,661.891 526.5,671C 532.041,679.7 535.208,689.2 536,699.5C 536.333,729.5 536.667,759.5 537,789.5C 538.808,793.974 541.974,797.141 546.5,799C 552.633,799.811 558.633,801.145 564.5,803C 571.938,809.221 573.438,816.721 569,825.5C 563.987,831.178 557.654,833.511 550,832.5C 521.958,831.142 506.624,816.475 504,788.5C 503.667,758.833 503.333,729.167 503,699.5C 501.789,696.241 499.956,693.408 497.5,691C 490.285,688.569 482.951,686.569 475.5,685C 467.156,676.915 466.489,668.249 473.5,659C 479.436,655.952 485.769,654.285 492.5,654C 498.098,652.069 501.598,648.236 503,642.5C 503.333,611.5 503.667,580.5 504,549.5C 508.122,526.544 521.622,513.211 544.5,509.5 Z"/></g>
<g><path style="opacity:1" fill="#231f1f" d="M 1000.5,510.5 C 1015.74,508.646 1029.74,511.813 1042.5,520C 1051.66,528.467 1056.83,538.967 1058,551.5C 1058.33,581.833 1058.67,612.167 1059,642.5C 1060,646.493 1062.16,649.659 1065.5,652C 1073.17,654.333 1080.83,656.667 1088.5,659C 1095.39,667.652 1095.06,675.985 1087.5,684C 1082.29,686.939 1076.62,688.272 1070.5,688C 1064.64,689.859 1060.81,693.693 1059,699.5C 1058.67,729.167 1058.33,758.833 1058,788.5C 1054.53,817.799 1038.03,832.466 1008.5,832.5C 995.249,831.745 989.416,824.745 991,811.5C 994.997,802.912 1001.83,799.078 1011.5,800C 1018.46,799.043 1022.96,795.209 1025,788.5C 1025.33,757.833 1025.67,727.167 1026,696.5C 1027.4,687.309 1030.56,678.809 1035.5,671C 1030.11,661.933 1026.94,652.099 1026,641.5C 1025.67,612.167 1025.33,582.833 1025,553.5C 1023.6,550.098 1021.43,547.264 1018.5,545C 1012.28,543.21 1005.94,541.876 999.5,541C 989.856,534.231 988.022,525.731 994,515.5C 995.965,513.45 998.132,511.783 1000.5,510.5 Z"/></g>
<g><path style="opacity:1" fill="#4b87ce" d="M 667.5,584.5 C 711.119,581.049 742.619,598.715 762,637.5C 777.16,682.645 765.326,718.811 726.5,746C 693.66,763.78 661.66,762.447 630.5,742C 596.796,714.028 586.962,679.195 601,637.5C 614.48,608.846 636.646,591.179 667.5,584.5 Z"/></g>
<g><path style="opacity:1" fill="#4b87ce" d="M 866.5,584.5 C 910.112,581.046 941.612,598.712 961,637.5C 975.336,680.816 964.503,716.316 928.5,744C 893.048,764.73 858.715,763.064 825.5,739C 795.451,711.591 786.618,678.425 799,639.5C 812.416,609.909 834.916,591.575 866.5,584.5 Z"/></g>
<g><path style="opacity:1" fill="#fefefe" d="M 673.5,616.5 C 704.908,615.439 725.408,629.772 735,659.5C 738.675,691 725.841,712.5 696.5,724C 661.734,729.706 638.9,715.872 628,682.5C 624.644,647.502 639.81,625.502 673.5,616.5 Z"/></g>
<g><path style="opacity:1" fill="#fefefe" d="M 872.5,616.5 C 903.9,615.436 924.4,629.769 934,659.5C 937.599,683.453 929.766,702.619 910.5,717C 876.932,733.805 850.432,726.305 831,694.5C 820.141,665.411 827.307,641.911 852.5,624C 859.021,620.775 865.688,618.275 872.5,616.5 Z"/></g>
<g><path style="opacity:1" fill="#4e89cf" d="M 534.5,891.5 C 535.376,891.369 536.043,891.702 536.5,892.5C 549.406,922.973 561.739,953.639 573.5,984.5C 570.223,984.784 567.057,984.451 564,983.5C 560.861,975.913 558.028,968.247 555.5,960.5C 542.15,960.167 528.817,960.501 515.5,961.5C 512.5,968.833 509.5,976.167 506.5,983.5C 503.216,984.657 499.882,984.824 496.5,984C 509.266,953.2 521.933,922.367 534.5,891.5 Z"/></g>
<g><path style="opacity:1" fill="#4e89cf" d="M 732.5,951.5 C 721.012,950.505 709.345,950.172 697.5,950.5C 697.5,948.167 697.5,945.833 697.5,943.5C 712.871,942.85 727.871,943.516 742.5,945.5C 739.098,968.069 726.098,981.236 703.5,985C 677.272,986.629 660.439,974.796 653,949.5C 649.925,921.583 661.758,903.416 688.5,895C 713.858,892.675 731.525,903.175 741.5,926.5C 738.167,927.833 734.833,927.833 731.5,926.5C 719.625,905.03 702.292,898.864 679.5,908C 661.146,921.069 656.646,937.902 666,958.5C 681.464,978.849 699.964,982.015 721.5,968C 726.592,963.416 730.258,957.916 732.5,951.5 Z"/></g>
<g><path style="opacity:1" fill="#262222" d="M 922.5,894.5 C 948.837,893.571 966.004,905.571 974,930.5C 976.8,956.749 965.967,974.583 941.5,984C 913.051,988.864 894.217,977.698 885,950.5C 881.719,921.279 894.219,902.612 922.5,894.5 Z"/></g>
<g><path style="opacity:1" fill="#252222" d="M 1115.5,912.5 C 1112.71,913.477 1109.71,913.81 1106.5,913.5C 1104.19,907.658 1099.86,904.158 1093.5,903C 1083.76,900.784 1075.26,902.951 1068,909.5C 1063.78,917.249 1065.28,923.749 1072.5,929C 1083.98,933.456 1095.65,937.456 1107.5,941C 1121.07,948.658 1124.23,959.492 1117,973.5C 1112.19,979.488 1106.03,983.321 1098.5,985C 1090.5,985.667 1082.5,985.667 1074.5,985C 1063.13,982.134 1056.46,974.967 1054.5,963.5C 1057.85,963.335 1061.18,963.502 1064.5,964C 1068.38,974.618 1076.05,979.118 1087.5,977.5C 1096.01,978.324 1103.18,975.658 1109,969.5C 1113.21,962.26 1112.04,956.093 1105.5,951C 1095.22,946.194 1084.56,942.527 1073.5,940C 1055.28,931.907 1051.61,919.574 1062.5,903C 1066.86,899.319 1071.86,896.986 1077.5,896C 1089.07,893.765 1099.74,895.765 1109.5,902C 1112.43,905.029 1114.43,908.529 1115.5,912.5 Z"/></g>
<g><path style="opacity:1" fill="#4a87ce" d="M 492.5,896.5 C 492.5,899.167 492.5,901.833 492.5,904.5C 485.5,904.5 478.5,904.5 471.5,904.5C 470.502,930.661 470.169,956.995 470.5,983.5C 467.833,983.5 465.167,983.5 462.5,983.5C 462.5,957.167 462.5,930.833 462.5,904.5C 455.687,903.509 448.687,903.175 441.5,903.5C 441.5,901.167 441.5,898.833 441.5,896.5C 458.5,896.5 475.5,896.5 492.5,896.5 Z"/></g>
<g><path style="opacity:1" fill="#4e89ce" d="M 585.5,896.5 C 596.838,896.333 608.172,896.5 619.5,897C 635.981,901.125 643.147,911.625 641,928.5C 637.433,940.897 629.267,948.231 616.5,950.5C 625.358,961.524 634.024,972.69 642.5,984C 638.5,984.667 634.5,984.667 630.5,984C 622.045,972.923 613.712,961.756 605.5,950.5C 601.893,949.511 598.226,949.177 594.5,949.5C 594.5,961.167 594.5,972.833 594.5,984.5C 591.5,984.5 588.5,984.5 585.5,984.5C 585.5,955.167 585.5,925.833 585.5,896.5 Z"/></g>
<g><path style="opacity:1" fill="#4c88ce" d="M 768.5,904.5 C 767.506,914.987 767.172,925.654 767.5,936.5C 781.5,936.5 795.5,936.5 809.5,936.5C 809.5,939.167 809.5,941.833 809.5,944.5C 795.833,944.5 782.167,944.5 768.5,944.5C 767.506,954.987 767.172,965.654 767.5,976.5C 782.167,976.5 796.833,976.5 811.5,976.5C 811.5,979.167 811.5,981.833 811.5,984.5C 793.833,984.5 776.167,984.5 758.5,984.5C 758.5,955.167 758.5,925.833 758.5,896.5C 776.167,896.5 793.833,896.5 811.5,896.5C 811.5,899.167 811.5,901.833 811.5,904.5C 797.167,904.5 782.833,904.5 768.5,904.5 Z"/></g>
<g><path style="opacity:1" fill="#4a87ce" d="M 875.5,896.5 C 875.5,899.167 875.5,901.833 875.5,904.5C 868.5,904.5 861.5,904.5 854.5,904.5C 853.502,930.661 853.169,956.995 853.5,983.5C 850.833,983.5 848.167,983.5 845.5,983.5C 845.5,957.167 845.5,930.833 845.5,904.5C 838.687,903.509 831.687,903.175 824.5,903.5C 824.5,901.167 824.5,898.833 824.5,896.5C 841.5,896.5 858.5,896.5 875.5,896.5 Z"/></g>
<g><path style="opacity:1" fill="#242020" d="M 990.5,896.5 C 1001.84,896.333 1013.17,896.5 1024.5,897C 1040.98,901.125 1048.15,911.625 1046,928.5C 1043.19,939.307 1036.36,946.14 1025.5,949C 1016.84,949.5 1008.17,949.666 999.5,949.5C 999.5,961.167 999.5,972.833 999.5,984.5C 996.5,984.5 993.5,984.5 990.5,984.5C 990.5,955.167 990.5,925.833 990.5,896.5 Z"/></g>
<g><path style="opacity:1" fill="#73a1d9" d="M 492.5,896.5 C 475.5,896.5 458.5,896.5 441.5,896.5C 441.5,898.833 441.5,901.167 441.5,903.5C 448.687,903.175 455.687,903.509 462.5,904.5C 462.167,904.5 461.833,904.5 461.5,904.5C 454.5,904.5 447.5,904.5 440.5,904.5C 440.5,901.5 440.5,898.5 440.5,895.5C 458.008,895.17 475.341,895.503 492.5,896.5 Z"/></g>
<g><path style="opacity:1" fill="#73a1d9" d="M 875.5,896.5 C 858.5,896.5 841.5,896.5 824.5,896.5C 824.5,898.833 824.5,901.167 824.5,903.5C 831.687,903.175 838.687,903.509 845.5,904.5C 845.167,904.5 844.833,904.5 844.5,904.5C 837.5,904.5 830.5,904.5 823.5,904.5C 823.5,901.5 823.5,898.5 823.5,895.5C 841.008,895.17 858.341,895.503 875.5,896.5 Z"/></g>
<g><path style="opacity:1" fill="#90b5e1" d="M 461.5,904.5 C 461.833,904.5 462.167,904.5 462.5,904.5C 462.5,930.833 462.5,957.167 462.5,983.5C 465.167,983.5 467.833,983.5 470.5,983.5C 470.169,956.995 470.502,930.661 471.5,904.5C 471.5,931.167 471.5,957.833 471.5,984.5C 468.167,984.5 464.833,984.5 461.5,984.5C 461.5,957.833 461.5,931.167 461.5,904.5 Z"/></g>
<g><path style="opacity:1" fill="#90b5e1" d="M 844.5,904.5 C 844.833,904.5 845.167,904.5 845.5,904.5C 845.5,930.833 845.5,957.167 845.5,983.5C 848.167,983.5 850.833,983.5 853.5,983.5C 853.169,956.995 853.502,930.661 854.5,904.5C 854.5,931.167 854.5,957.833 854.5,984.5C 851.167,984.5 847.833,984.5 844.5,984.5C 844.5,957.833 844.5,931.167 844.5,904.5 Z"/></g>
<g><path style="opacity:1" fill="#fcfcfc" d="M 922.5,903.5 C 951.843,903.675 966.01,918.341 965,947.5C 958.162,968.668 943.662,978.168 921.5,976C 900.018,968.884 890.852,954.051 894,931.5C 898.752,917.248 908.252,907.914 922.5,903.5 Z"/></g>
<g><path style="opacity:1" fill="#fcfdfe" d="M 594.5,904.5 C 602.507,904.334 610.507,904.5 618.5,905C 631.861,910.067 635.694,919.233 630,932.5C 628.116,935.384 625.616,937.551 622.5,939C 613.248,940.417 603.915,940.917 594.5,940.5C 594.5,928.5 594.5,916.5 594.5,904.5 Z"/></g>
<g><path style="opacity:1" fill="#fcfcfc" d="M 999.5,904.5 C 1007.84,904.334 1016.17,904.5 1024.5,905C 1037.35,910.542 1040.85,919.708 1035,932.5C 1033.24,935.473 1030.74,937.64 1027.5,939C 1018.25,940.417 1008.91,940.917 999.5,940.5C 999.5,928.5 999.5,916.5 999.5,904.5 Z"/></g>
<g><path style="opacity:1" fill="#fbfcfe" d="M 550.5,950.5 C 540.347,951.494 530.014,951.828 519.5,951.5C 524.444,938.334 529.777,925.334 535.5,912.5C 540.896,925.022 545.896,937.689 550.5,950.5 Z"/></g>
<g><path style="opacity:1" fill="#888585" d="M 1115.5,912.5 C 1116.04,912.56 1116.38,912.893 1116.5,913.5C 1113.02,914.806 1109.69,914.806 1106.5,913.5C 1109.71,913.81 1112.71,913.477 1115.5,912.5 Z"/></g>
<g><path style="opacity:1" fill="#3bb6ff" d="M 923.5,928.5 C 939.522,927.678 946.022,935.011 943,950.5C 938.585,957.976 932.085,960.809 923.5,959C 915.376,954.581 912.21,947.747 914,938.5C 916.359,934.31 919.526,930.977 923.5,928.5 Z"/></g>
<g><path style="opacity:1" fill="#acc8e8" d="M 768.5,904.5 C 768.5,914.833 768.5,925.167 768.5,935.5C 782.344,935.171 796.01,935.504 809.5,936.5C 795.5,936.5 781.5,936.5 767.5,936.5C 767.172,925.654 767.506,914.987 768.5,904.5 Z"/></g>
<g><path style="opacity:1" fill="#c2d6ee" d="M 697.5,943.5 C 712.658,942.504 727.991,942.17 743.5,942.5C 743.737,943.791 743.404,944.791 742.5,945.5C 727.871,943.516 712.871,942.85 697.5,943.5 Z"/></g>
<g><path style="opacity:1" fill="#96b8e2" d="M 697.5,943.5 C 697.5,945.833 697.5,948.167 697.5,950.5C 709.345,950.172 721.012,950.505 732.5,951.5C 720.5,951.5 708.5,951.5 696.5,951.5C 696.194,948.615 696.527,945.948 697.5,943.5 Z"/></g>
<g><path style="opacity:1" fill="#a2c1e5" d="M 550.5,950.5 C 551.043,950.56 551.376,950.893 551.5,951.5C 540.674,952.823 530.007,952.823 519.5,951.5C 530.014,951.828 540.347,951.494 550.5,950.5 Z"/></g>
<g><path style="opacity:1" fill="#aec9e9" d="M 768.5,944.5 C 768.5,954.833 768.5,965.167 768.5,975.5C 783.01,975.171 797.343,975.504 811.5,976.5C 796.833,976.5 782.167,976.5 767.5,976.5C 767.172,965.654 767.506,954.987 768.5,944.5 Z"/></g>
<g><path style="opacity:1" fill="#727372" d="M 539.5,1025.5 C 540.5,1025.5 541.5,1025.5 542.5,1025.5C 542.5,1036.17 542.5,1046.83 542.5,1057.5C 541.5,1057.5 540.5,1057.5 539.5,1057.5C 539.5,1046.83 539.5,1036.17 539.5,1025.5 Z"/></g>
<g><path style="opacity:1" fill="#7b7b7b" d="M 569.5,1035.5 C 569.539,1034.24 569.039,1033.24 568,1032.5C 567.5,1040.83 567.334,1049.16 567.5,1057.5C 566.5,1057.5 565.5,1057.5 564.5,1057.5C 564.5,1046.83 564.5,1036.17 564.5,1025.5C 566.467,1025.26 568.301,1025.59 570,1026.5C 571.798,1032.89 573.798,1039.23 576,1045.5C 576.5,1038.84 576.666,1032.17 576.5,1025.5C 577.5,1025.5 578.5,1025.5 579.5,1025.5C 579.5,1036.17 579.5,1046.83 579.5,1057.5C 578.178,1057.67 577.011,1057.34 576,1056.5C 573.928,1049.45 571.761,1042.45 569.5,1035.5 Z"/></g>
<g><path style="opacity:1" fill="#727372" d="M 602.5,1025.5 C 606.5,1025.5 610.5,1025.5 614.5,1025.5C 614.5,1026.5 614.5,1027.5 614.5,1028.5C 611.5,1028.5 608.5,1028.5 605.5,1028.5C 605.5,1032.5 605.5,1036.5 605.5,1040.5C 607.833,1040.5 610.167,1040.5 612.5,1040.5C 612.5,1041.5 612.5,1042.5 612.5,1043.5C 610.167,1043.5 607.833,1043.5 605.5,1043.5C 605.5,1048.17 605.5,1052.83 605.5,1057.5C 604.5,1057.5 603.5,1057.5 602.5,1057.5C 602.5,1046.83 602.5,1036.17 602.5,1025.5 Z"/></g>
<g><path style="opacity:1" fill="#7d7d7d" d="M 635.5,1025.5 C 636.833,1025.5 638.167,1025.5 639.5,1025.5C 639.5,1036.17 639.5,1046.83 639.5,1057.5C 638.167,1057.5 636.833,1057.5 635.5,1057.5C 635.5,1046.83 635.5,1036.17 635.5,1025.5 Z"/></g>
<g><path style="opacity:1" fill="#767676" d="M 661.5,1025.5 C 663.288,1025.21 664.955,1025.55 666.5,1026.5C 668.666,1033.16 670.832,1039.83 673,1046.5C 673.5,1039.51 673.666,1032.51 673.5,1025.5C 674.5,1025.5 675.5,1025.5 676.5,1025.5C 676.5,1036.17 676.5,1046.83 676.5,1057.5C 675.167,1057.5 673.833,1057.5 672.5,1057.5C 670.511,1049.03 668.011,1040.7 665,1032.5C 664.5,1040.83 664.334,1049.16 664.5,1057.5C 663.5,1057.5 662.5,1057.5 661.5,1057.5C 661.5,1046.83 661.5,1036.17 661.5,1025.5 Z"/></g>
<g><path style="opacity:1" fill="#7d7d7d" d="M 698.5,1025.5 C 699.833,1025.5 701.167,1025.5 702.5,1025.5C 702.5,1036.17 702.5,1046.83 702.5,1057.5C 701.167,1057.5 699.833,1057.5 698.5,1057.5C 698.5,1046.83 698.5,1036.17 698.5,1025.5 Z"/></g>
<g><path style="opacity:1" fill="#7d7d7d" d="M 722.5,1025.5 C 727.833,1025.5 733.167,1025.5 738.5,1025.5C 738.5,1026.5 738.5,1027.5 738.5,1028.5C 736.5,1028.5 734.5,1028.5 732.5,1028.5C 732.5,1038.17 732.5,1047.83 732.5,1057.5C 731.167,1057.5 729.833,1057.5 728.5,1057.5C 728.5,1047.83 728.5,1038.17 728.5,1028.5C 726.5,1028.5 724.5,1028.5 722.5,1028.5C 722.5,1027.5 722.5,1026.5 722.5,1025.5 Z"/></g>
<g><path style="opacity:1" fill="#747474" d="M 759.5,1025.5 C 763.833,1025.5 768.167,1025.5 772.5,1025.5C 772.5,1026.5 772.5,1027.5 772.5,1028.5C 769.167,1028.5 765.833,1028.5 762.5,1028.5C 762.5,1032.17 762.5,1035.83 762.5,1039.5C 765.167,1039.5 767.833,1039.5 770.5,1039.5C 770.5,1040.5 770.5,1041.5 770.5,1042.5C 767.833,1042.5 765.167,1042.5 762.5,1042.5C 762.5,1046.5 762.5,1050.5 762.5,1054.5C 765.833,1054.5 769.167,1054.5 772.5,1054.5C 772.5,1055.5 772.5,1056.5 772.5,1057.5C 768.167,1057.5 763.833,1057.5 759.5,1057.5C 759.5,1046.83 759.5,1036.17 759.5,1025.5 Z"/></g>
<g><path style="opacity:1" fill="#777777" d="M 822.5,1025.5 C 830.614,1023.95 834.281,1027.28 833.5,1035.5C 832.5,1035.5 831.5,1035.5 830.5,1035.5C 830.862,1029 828.362,1027.33 823,1030.5C 822.333,1037.83 822.333,1045.17 823,1052.5C 825.333,1055.17 827.667,1055.17 830,1052.5C 830.498,1049.52 830.665,1046.52 830.5,1043.5C 829.167,1043.5 827.833,1043.5 826.5,1043.5C 826.5,1042.5 826.5,1041.5 826.5,1040.5C 828.833,1040.5 831.167,1040.5 833.5,1040.5C 833.825,1045.6 833.325,1050.6 832,1055.5C 827.731,1058.38 823.731,1058.05 820,1054.5C 819.333,1045.83 819.333,1037.17 820,1028.5C 821.045,1027.63 821.878,1026.63 822.5,1025.5 Z"/></g>
<g><path style="opacity:1" fill="#797979" d="M 855.5,1025.5 C 866.787,1023.03 871.287,1027.37 869,1038.5C 868.535,1039.93 867.701,1041.1 866.5,1042C 867.701,1042.9 868.535,1044.07 869,1045.5C 869.499,1049.49 869.666,1053.49 869.5,1057.5C 868.178,1057.67 867.011,1057.34 866,1056.5C 865.667,1052.83 865.333,1049.17 865,1045.5C 863.211,1043.77 861.044,1043.1 858.5,1043.5C 858.5,1048.17 858.5,1052.83 858.5,1057.5C 857.5,1057.5 856.5,1057.5 855.5,1057.5C 855.5,1046.83 855.5,1036.17 855.5,1025.5 Z"/></g>
<g><path style="opacity:1" fill="#7a7a7a" d="M 894.5,1025.5 C 899.742,1024.27 903.575,1025.94 906,1030.5C 906.667,1037.5 906.667,1044.5 906,1051.5C 904.171,1057.16 900.337,1058.99 894.5,1057C 893.299,1056.1 892.465,1054.93 892,1053.5C 891.333,1045.17 891.333,1036.83 892,1028.5C 893.045,1027.63 893.878,1026.63 894.5,1025.5 Z"/></g>
<g><path style="opacity:1" fill="#7d7d7d" d="M 927.5,1025.5 C 928.822,1025.33 929.989,1025.66 931,1026.5C 932.146,1034.82 933.146,1043.15 934,1051.5C 935.495,1042.89 936.662,1034.22 937.5,1025.5C 938.833,1025.5 940.167,1025.5 941.5,1025.5C 942.775,1034.13 943.941,1042.8 945,1051.5C 945.912,1042.78 947.079,1034.12 948.5,1025.5C 949.5,1025.5 950.5,1025.5 951.5,1025.5C 950.167,1036.17 948.833,1046.83 947.5,1057.5C 945.833,1057.5 944.167,1057.5 942.5,1057.5C 940.5,1032.17 938.5,1032.17 936.5,1057.5C 934.833,1057.5 933.167,1057.5 931.5,1057.5C 929.904,1046.87 928.57,1036.21 927.5,1025.5 Z"/></g>
<g><path style="opacity:1" fill="#737373" d="M 971.5,1025.5 C 976.5,1025.5 981.5,1025.5 986.5,1025.5C 986.5,1026.5 986.5,1027.5 986.5,1028.5C 984.5,1028.5 982.5,1028.5 980.5,1028.5C 980.5,1038.17 980.5,1047.83 980.5,1057.5C 979.5,1057.5 978.5,1057.5 977.5,1057.5C 977.5,1047.83 977.5,1038.17 977.5,1028.5C 975.5,1028.5 973.5,1028.5 971.5,1028.5C 971.5,1027.5 971.5,1026.5 971.5,1025.5 Z"/></g>
<g><path style="opacity:1" fill="#7d7d7d" d="M 1019.5,1057.5 C 1019.5,1052.5 1019.5,1047.5 1019.5,1042.5C 1016.61,1042.19 1013.95,1042.53 1011.5,1043.5C 1011.5,1048.17 1011.5,1052.83 1011.5,1057.5C 1010.17,1057.5 1008.83,1057.5 1007.5,1057.5C 1007.5,1046.83 1007.5,1036.17 1007.5,1025.5C 1008.83,1025.5 1010.17,1025.5 1011.5,1025.5C 1011.5,1030.17 1011.5,1034.83 1011.5,1039.5C 1013.83,1039.5 1016.17,1039.5 1018.5,1039.5C 1018.5,1034.83 1018.5,1030.17 1018.5,1025.5C 1019.83,1025.5 1021.17,1025.5 1022.5,1025.5C 1022.5,1036.17 1022.5,1046.83 1022.5,1057.5C 1021.5,1057.5 1020.5,1057.5 1019.5,1057.5 Z"/></g>
<g><path style="opacity:1" fill="#f7f7f7" d="M 896.5,1028.5 C 898.722,1028.18 900.556,1028.84 902,1030.5C 902.667,1037.83 902.667,1045.17 902,1052.5C 899.667,1055.17 897.333,1055.17 895,1052.5C 894.333,1045.17 894.333,1037.83 895,1030.5C 895.717,1029.96 896.217,1029.29 896.5,1028.5 Z"/></g>
<g><path style="opacity:1" fill="#f8f8f8" d="M 858.5,1028.5 C 863.918,1027.09 866.252,1029.09 865.5,1034.5C 865.835,1039.51 863.502,1041.51 858.5,1040.5C 858.5,1036.5 858.5,1032.5 858.5,1028.5 Z"/></g>
<g><path style="opacity:1" fill="#b4b4b4" d="M 569.5,1035.5 C 568.833,1042.83 568.167,1050.17 567.5,1057.5C 567.334,1049.16 567.5,1040.83 568,1032.5C 569.039,1033.24 569.539,1034.24 569.5,1035.5 Z"/></g>
<g><path style="opacity:1" fill="#b5b5b5" d="M 1011.5,1043.5 C 1013.95,1042.53 1016.61,1042.19 1019.5,1042.5C 1019.5,1047.5 1019.5,1052.5 1019.5,1057.5C 1018.51,1053.03 1018.18,1048.36 1018.5,1043.5C 1016.17,1043.5 1013.83,1043.5 1011.5,1043.5 Z"/></g>
</svg>
